<svg width="14" height="16" viewBox="0 0 14 16" fill="none" xmlns="http://www.w3.org/2000/svg"><path d="M.675 5.88c-1.353 2.348-.493 5.91 1.003 8.07C2.424 15.03 3.18 16 4.216 16l.059-.002c.486-.02.838-.17 1.178-.314.381-.163.776-.33 1.395-.33.589 0 .965.162 1.328.32.358.154.727.315 1.272.304 1.167-.021 1.883-1.067 2.515-1.99a8.804 8.804 0 001.101-2.256l.005-.014a.131.131 0 00-.07-.161l-.01-.004c-.205-.084-2.007-.884-2.026-3.062-.017-1.77 1.352-2.707 1.627-2.877l.012-.008a.131.131 0 00.038-.184c-.945-1.383-2.394-1.591-2.977-1.616a2.627 2.627 0 00-.26-.013c-.684 0-1.34.259-1.868.466-.364.144-.678.268-.895.268-.243 0-.56-.126-.925-.27-.49-.195-1.044-.415-1.632-.415h-.041c-1.366.02-2.656.802-3.367 2.039z" fill="#fff"/><path d="M9.659 0c-.827.034-1.82.543-2.412 1.237-.504.584-.996 1.557-.867 2.538a.131.131 0 00.12.114c.056.004.113.006.17.006.808 0 1.68-.447 2.276-1.167.627-.76.944-1.737.848-2.611A.132.132 0 009.66 0z" fill="#fff"/></svg>