<svg width="25" height="21" viewBox="0 0 25 21" fill="none" xmlns="http://www.w3.org/2000/svg"><path d="M17.88 20.32c-1.707 0-2.907-.427-3.6-1.28-.64-.853-.96-1.92-.96-3.2v-.16c0-.427.053-1.2.16-2.32.107-1.12.347-2.373.72-3.76.373-1.44.933-2.8 1.68-4.08a9.897 9.897 0 013.2-3.28c1.387-.853 3.12-1.28 5.2-1.28v6.88c-2.027 0-3.573.347-4.64 1.04-1.067.64-1.84 1.413-2.32 2.32h.4c1.707 0 2.907.453 3.6 1.36.693.853 1.04 1.92 1.04 3.2 0 1.28-.347 2.373-1.04 3.28-.64.853-1.787 1.28-3.44 1.28zM5 20.32c-1.653 0-2.827-.427-3.52-1.28-.693-.853-1.04-1.92-1.04-3.2v-.16c0-.427.053-1.2.16-2.32.107-1.12.347-2.373.72-3.76.373-1.44.96-2.8 1.76-4.08a9.897 9.897 0 013.2-3.28C7.613 1.387 9.32.96 11.4.96v6.88c-2.027 0-3.573.347-4.64 1.04-1.067.64-1.813 1.413-2.24 2.32h.32c1.76 0 2.987.453 3.68 1.36.693.853 1.04 1.92 1.04 3.2 0 1.28-.347 2.373-1.04 3.28-.693.853-1.867 1.28-3.52 1.28z" fill="#000"/></svg>