<svg width="40" height="40" viewBox="0 0 40 40" fill="none" xmlns="http://www.w3.org/2000/svg"><circle cx="20" cy="20" r="20" fill="#DC0082"/><path fill-rule="evenodd" clip-rule="evenodd" d="M10 20c0-4.191 0-6.287 1.05-7.733a5.5 5.5 0 011.217-1.217C13.713 10 15.81 10 20 10s6.287 0 7.733 1.05a5.5 5.5 0 011.217 1.217C30 13.713 30 15.81 30 20s0 6.287-1.05 7.733a5.5 5.5 0 01-1.217 1.217C26.287 30 24.19 30 20 30s-6.287 0-7.733-1.05a5.5 5.5 0 01-1.217-1.217C10 26.287 10 24.19 10 20zm10-5.294a5.294 5.294 0 100 10.588 5.294 5.294 0 000-10.588zm0 8.603A3.313 3.313 0 0116.691 20 3.313 3.313 0 0120 16.691 3.313 3.313 0 0123.309 20 3.313 3.313 0 0120 23.309zm6.397-9a.705.705 0 11-1.411 0 .705.705 0 011.41 0z" fill="#fff"/></svg>