<svg width="40" height="40" viewBox="0 0 40 40" fill="none" xmlns="http://www.w3.org/2000/svg"><circle cx="20" cy="20" r="20" fill="#fff"/><g clip-path="url(#clip0_1073_4764)"><path fill-rule="evenodd" clip-rule="evenodd" d="M20 40c11.046 0 20-8.954 20-20S31.046 0 20 0 0 8.954 0 20s8.954 20 20 20zm-1.995-22.073a5.437 5.437 0 013.39-1.478c5.396 0 5.598 5.77 5.598 5.77a5.197 5.197 0 01-.34 2.135 5.459 5.459 0 01-1.187 1.849 5.875 5.875 0 01-1.854 1.28 6.203 6.203 0 01-2.235.514 4.032 4.032 0 01-1.899-.392 3.749 3.749 0 01-1.446-1.218v1.222H14V12h4.005v5.927zm1.086 6.372c.421.264.916.405 1.423.405v-.034a2.65 2.65 0 001.8-.691 2.333 2.333 0 00.762-1.677c0-.476-.15-.94-.432-1.335a2.533 2.533 0 00-1.15-.885 2.72 2.72 0 00-1.48-.136 2.618 2.618 0 00-1.311.657 2.358 2.358 0 00-.701 1.23c-.1.466-.048.949.146 1.388.193.439.522.814.943 1.078z" fill="#03C75A"/></g><defs><clipPath id="clip0_1073_4764"><path fill="#fff" d="M0 0h40v40H0z"/></clipPath></defs></svg>