<svg width="40" height="40" viewBox="0 0 40 40" fill="none" xmlns="http://www.w3.org/2000/svg"><circle cx="20" cy="20" r="20" fill="#E5212B"/><path fill-rule="evenodd" clip-rule="evenodd" d="M29.39 12.114a3.007 3.007 0 012.116 2.115c.514 1.878.494 5.792.494 5.792s0 3.895-.494 5.773a3.007 3.007 0 01-2.116 2.115c-1.878.495-9.39.495-9.39.495s-7.493 0-9.39-.514a3.007 3.007 0 01-2.116-2.116C8 23.916 8 20.001 8 20.001s0-3.894.494-5.772a3.068 3.068 0 012.115-2.135C12.488 11.6 20 11.6 20 11.6s7.513 0 9.391.514zm-5.535 7.888L17.608 23.6v-7.197l6.247 3.599z" fill="#fff"/></svg>