<svg width="30" height="30" viewBox="0 0 30 30" fill="none" xmlns="http://www.w3.org/2000/svg"><g clip-path="url(#clip0_967_8044)"><path fill-rule="evenodd" clip-rule="evenodd" d="M15 30c8.284 0 15-6.716 15-15 0-8.284-6.716-15-15-15C6.716 0 0 6.716 0 15c0 8.284 6.716 15 15 15zm-1.496-16.555a4.078 4.078 0 012.542-1.108c4.047 0 4.199 4.327 4.199 4.327a3.9 3.9 0 01-.255 1.601c-.197.513-.5.984-.89 1.387a4.407 4.407 0 01-1.39.96 4.651 4.651 0 01-1.677.386 3.024 3.024 0 01-1.424-.294 2.811 2.811 0 01-1.085-.913v.916H10.5V9h3.004v4.445zm.814 4.78c.316.197.688.303 1.068.303v-.025c.505 0 .99-.186 1.349-.519.36-.333.565-.784.572-1.258 0-.356-.113-.704-.324-1a1.9 1.9 0 00-.862-.664 2.04 2.04 0 00-1.11-.103c-.373.07-.715.241-.984.493a1.77 1.77 0 00-.526.923c-.074.35-.036.711.11 1.04.145.33.391.611.707.81z" fill="#fff"/></g><defs><clipPath id="clip0_967_8044"><path fill="#fff" d="M0 0h30v30H0z"/></clipPath></defs></svg>