<svg width="30" height="30" viewBox="0 0 30 30" fill="none" xmlns="http://www.w3.org/2000/svg"><g clip-path="url(#clip0_967_8040)"><path fill-rule="evenodd" clip-rule="evenodd" d="M15 30c8.284 0 15-6.716 15-15 0-8.284-6.716-15-15-15C6.716 0 0 6.716 0 15c0 8.284 6.716 15 15 15zm.894-14.473V21l-2.113-.006v-5.473H12v-2.134h1.774V11.82c0-1.826 1.073-2.82 2.64-2.82.53-.002 1.06.026 1.586.083v1.904h-1.087c-.853 0-1.019.42-1.019 1.038v1.362h2.035l-.266 2.14h-1.769z" fill="#fff"/></g><defs><clipPath id="clip0_967_8040"><path fill="#fff" d="M0 0h30v30H0z"/></clipPath></defs></svg>