<svg width="30" height="30" viewBox="0 0 30 30" fill="none" xmlns="http://www.w3.org/2000/svg"><g clip-path="url(#clip0_967_8046)"><path fill-rule="evenodd" clip-rule="evenodd" d="M15 30c8.284 0 15-6.716 15-15 0-8.284-6.716-15-15-15C6.716 0 0 6.716 0 15c0 8.284 6.716 15 15 15zM9.206 12.985h2.588V21H9.206v-8.015zM10.5 9c.297 0 .587.085.834.244.246.159.439.385.552.65.114.263.143.554.085.835a1.43 1.43 0 01-.411.74c-.21.202-.478.34-.769.395a1.552 1.552 0 01-.867-.083 1.49 1.49 0 01-.672-.533 1.41 1.41 0 01.187-1.826A1.523 1.523 0 0110.5 9zm3 3.951h2.306v1.1h.032c.23-.41.565-.748.966-.977a2.45 2.45 0 011.311-.322c2.435 0 2.885 1.665 2.885 3.834V21h-2.404v-3.915c0-.934-.015-2.133-1.25-2.133s-1.444 1.018-1.444 2.066V21H13.5v-8.05z" fill="#fff"/></g><defs><clipPath id="clip0_967_8046"><path fill="#fff" d="M0 0h30v30H0z"/></clipPath></defs></svg>