<svg width="15" height="12" viewBox="0 0 15 12" fill="none" xmlns="http://www.w3.org/2000/svg"><path d="M8.08 8.76c0-.213.013-.627.04-1.24.053-.613.173-1.32.36-2.12a9.7 9.7 0 01.96-2.32 5.649 5.649 0 011.8-1.84c.747-.507 1.693-.76 2.84-.76v4c-.96 0-1.72.147-2.28.44-.56.267-.987.613-1.28 1.04A3.7 3.7 0 0010 7.24a5.158 5.158 0 00-.04 1.08l.04.44H8.08zm-4.56 2.52c-.933 0-1.6-.24-2-.72-.373-.507-.56-1.133-.56-1.88 0-.693.173-1.28.52-1.76.347-.507 1-.76 1.96-.76.987 0 1.68.253 2.08.76.4.507.6 1.107.6 1.8 0 .72-.2 1.333-.6 1.84-.373.48-1.04.72-2 .72zM.96 8.76c0-.213.027-.627.08-1.24.053-.613.173-1.32.36-2.12s.493-1.573.92-2.32a5.649 5.649 0 011.8-1.84C4.867.733 5.827.48 7 .48v4c-.987 0-1.76.147-2.32.44-.56.267-.973.613-1.24 1.04a3.7 3.7 0 00-.52 1.28c-.08.427-.107.787-.08 1.08l.04.44H.96zm9.68 2.52c-.933 0-1.6-.24-2-.72-.373-.507-.56-1.133-.56-1.88 0-.693.173-1.28.52-1.76.347-.507 1-.76 1.96-.76.987 0 1.68.253 2.08.76.4.507.6 1.107.6 1.8 0 .72-.2 1.333-.6 1.84-.4.48-1.067.72-2 .72z" fill="#000"/></svg>