<svg width="24" height="24" viewBox="0 0 24 24" fill="none" xmlns="http://www.w3.org/2000/svg"><circle cx="12" cy="12" r="12" fill="#fff"/><g clip-path="url(#clip0_1158_1013)"><path fill-rule="evenodd" clip-rule="evenodd" d="M12 24c6.627 0 12-5.373 12-12S18.627 0 12 0 0 5.373 0 12s5.373 12 12 12zm-1.197-13.244a3.262 3.262 0 012.034-.886c3.237 0 3.359 3.461 3.359 3.461.022.436-.047.871-.204 1.281-.157.41-.4.787-.713 1.11a3.525 3.525 0 01-1.112.768 3.72 3.72 0 01-1.34.308 2.418 2.418 0 01-1.14-.235 2.25 2.25 0 01-.868-.73v.732H8.4V7.2h2.403v3.556zm.652 3.823c.252.159.55.243.854.243v-.02a1.59 1.59 0 001.079-.415c.287-.266.452-.627.457-1.006 0-.285-.09-.564-.259-.8a1.52 1.52 0 00-.69-.532 1.635 1.635 0 00-.887-.082 1.57 1.57 0 00-.787.395 1.416 1.416 0 00-.421.738c-.06.28-.029.57.088.832.116.264.313.489.566.647z" fill="#03C75A"/></g><defs><clipPath id="clip0_1158_1013"><path fill="#fff" d="M0 0h24v24H0z"/></clipPath></defs></svg>