<svg width="24" height="24" viewBox="0 0 24 24" fill="none" xmlns="http://www.w3.org/2000/svg"><circle cx="12" cy="12" r="12" fill="#E5212B"/><path fill-rule="evenodd" clip-rule="evenodd" d="M17.631 7.27a1.804 1.804 0 011.27 1.269c.308 1.126.296 3.475.296 3.475s0 2.337-.297 3.463a1.804 1.804 0 01-1.269 1.27c-1.127.296-5.634.296-5.634.296s-4.496 0-5.634-.308a1.804 1.804 0 01-1.27-1.27c-.296-1.114-.296-3.463-.296-3.463s0-2.337.296-3.463a1.841 1.841 0 011.27-1.281c1.126-.297 5.634-.297 5.634-.297s4.507 0 5.634.308zm-3.321 4.732l-3.748 2.159V9.843l3.748 2.16z" fill="#fff"/></svg>