<svg width="24" height="24" viewBox="0 0 24 24" fill="none" xmlns="http://www.w3.org/2000/svg"><circle cx="12" cy="12" r="12" fill="#DC0082"/><path fill-rule="evenodd" clip-rule="evenodd" d="M6 8.34c0-.975 0-1.462.248-1.804a1.3 1.3 0 01.288-.288C6.878 6 7.366 6 8.34 6h7.32c.975 0 1.462 0 1.804.248.11.08.208.178.288.288.248.342.248.83.248 1.804v7.32c0 .975 0 1.462-.248 1.804a1.3 1.3 0 01-.288.288c-.342.248-.83.248-1.804.248H8.34c-.975 0-1.462 0-1.804-.248a1.3 1.3 0 01-.288-.288C6 17.122 6 16.634 6 15.66V8.34zm6 .484a3.177 3.177 0 100 6.353 3.177 3.177 0 000-6.353zm0 5.161A1.988 1.988 0 0110.015 12c0-1.095.89-1.985 1.985-1.985 1.094 0 1.985.89 1.985 1.985A1.988 1.988 0 0112 13.985zm3.838-5.4a.423.423 0 11-.847 0 .423.423 0 01.847 0z" fill="#fff"/></svg>